<?xml version="1.0" encoding="utf-8"?>
<!-- Generator: Adobe Illustrator 21.0.0, SVG Export Plug-In . SVG Version: 6.00 Build 0)  -->
<svg version="1.1" id="Capa_1" xmlns="http://www.w3.org/2000/svg" xmlns:xlink="http://www.w3.org/1999/xlink" x="0px" y="0px"
	 viewBox="0 0 412.9 510.3" style="enable-background:new 0 0 412.9 510.3;" xml:space="preserve">
<style type="text/css">
	.st0{fill:#4F39A4;}
</style>
<g>
	<path class="st0" d="M276.6,85.4h-227C22.3,85.4,0,107.7,0,135v325.7c0,27.3,22.3,49.6,49.6,49.6h227c27.3,0,49.6-22.3,49.6-49.6
		V135C326,107.6,303.8,85.4,276.6,85.4z M48.9,135c0-0.3,0.3-0.6,0.6-0.6h227c0.3,0,0.6,0.3,0.6,0.6v325.6c0,0.3-0.3,0.6-0.6,0.6
		h-227c-0.3,0-0.6-0.3-0.6-0.6V135z"/>
	<path class="st0" d="M363.3,0h-227C109,0,86.7,22.3,86.7,49.6c0,13.5,11,24.5,24.5,24.5s24.5-11,24.5-24.5c0-0.3,0.3-0.6,0.6-0.6
		h227c0.3,0,0.6,0.3,0.6,0.6v325.7c0,0.3-0.3,0.6-0.6,0.6c-13.5,0-24.5,11-24.5,24.5s11,24.5,24.5,24.5c27.3,0,49.6-22.3,49.6-49.6
		V49.6C412.9,22.3,390.7,0,363.3,0z"/>
</g>
</svg>
