<?xml version="1.0" encoding="utf-8"?>
<!-- Generator: Adobe Illustrator 21.0.0, SVG Export Plug-In . SVG Version: 6.00 Build 0)  -->
<svg version="1.1" id="Слой_1" xmlns="http://www.w3.org/2000/svg" xmlns:xlink="http://www.w3.org/1999/xlink" x="0px" y="0px"
	 viewBox="0 0 142.3 99.7" style="enable-background:new 0 0 142.3 99.7;" xml:space="preserve">
<style type="text/css">
	.st0{fill:#F3554E;}
</style>
<path class="st0" d="M100.3,8.7L72,37L43.7,8.7c-4.2-4.2-11-4.2-15.2,0s-4.2,11,0,15.2l28.3,28.3L28.5,80.5c-4.2,4.2-4.2,11,0,15.2
	c4.2,4.2,11,4.2,15.2,0L72,67.5l28.3,28.3c4.2,4.2,11,4.2,15.2,0c4.2-4.2,4.2-11,0-15.2L87.2,52.2L115.5,24c4.2-4.2,4.2-11,0-15.2
	C111.3,4.5,104.5,4.5,100.3,8.7z"/>
</svg>
