<?xml version="1.0" encoding="utf-8"?>
<!-- Generator: Adobe Illustrator 21.0.0, SVG Export Plug-In . SVG Version: 6.00 Build 0)  -->
<svg version="1.1" id="Capa_1" xmlns="http://www.w3.org/2000/svg" xmlns:xlink="http://www.w3.org/1999/xlink" x="0px" y="0px"
	 viewBox="0 0 490.4 490.4" style="enable-background:new 0 0 490.4 490.4;" xml:space="preserve">
<style type="text/css">
	.st0{fill:#2BAC3A;}
</style>
<path class="st0" d="M193,418.5l262.2-304.7c4.1-4.7,6.1-10.8,5.6-17c-0.5-6.3-3.3-11.9-8.1-16l-13.1-11.3
	c-4.2-3.7-9.7-5.7-15.3-5.7c-6.6,0-13,2.8-17.4,7.7L174.5,329.3l-6.5,7.3l-7.4-6.4l-80.8-69.5c-4.3-3.7-9.7-5.7-15.3-5.7
	c-6.6,0-13,2.8-17.4,7.7l-11.6,12.8c-4.2,4.6-6.3,10.6-6,16.9c0.3,6.2,3.1,12,7.7,16.2l0,0l0,0l0.1,0.1l121.8,111.5l0,0l0,0
	c4.4,4.1,10.1,6.4,16,6.4c0.4,0,0.8,0,1.2,0C182.9,426.3,188.9,423.3,193,418.5z"/>
</svg>
