<?xml version="1.0" encoding="utf-8"?>
<!-- Generator: Adobe Illustrator 21.0.0, SVG Export Plug-In . SVG Version: 6.00 Build 0)  -->
<svg version="1.1" id="Слой_1" xmlns="http://www.w3.org/2000/svg" xmlns:xlink="http://www.w3.org/1999/xlink" x="0px" y="0px"
	 viewBox="0 0 142.3 99.7" style="enable-background:new 0 0 142.3 99.7;" xml:space="preserve">
<style type="text/css">
	.st0{fill:#6DD8BA;}
</style>
<path class="st0" d="M83.1,12.2v46.4l17.1-17.1c4.6-4.6,12.2-4.6,16.8,0c4.6,4.6,4.6,12.2,0,16.8L79.6,95.8
	c-4.6,4.6-12.2,4.6-16.8,0h0c-0.4-0.4-0.7-0.8-1-1.2L25.3,58.2c-4.6-4.6-4.6-12.2,0-16.8v0c4.6-4.6,12.2-4.6,16.8,0l17.3,17.3V12.2
	c0-6.6,5.3-11.9,11.9-11.9C77.8,0.4,83.1,5.7,83.1,12.2z"/>
</svg>
