<?xml version="1.0" encoding="utf-8"?>
<!-- Generator: Adobe Illustrator 21.0.0, SVG Export Plug-In . SVG Version: 6.00 Build 0)  -->
<svg version="1.1" id="Слой_1" xmlns="http://www.w3.org/2000/svg" xmlns:xlink="http://www.w3.org/1999/xlink" x="0px" y="0px"
	 viewBox="0 0 142.3 99.7" style="enable-background:new 0 0 142.3 99.7;" xml:space="preserve">
<style type="text/css">
	.st0{fill:#4F39A4;}
</style>
<path class="st0" d="M33.6,37.9H80L62.8,20.7c-4.6-4.6-4.6-12.2,0-16.8c4.6-4.6,12.2-4.6,16.8,0l37.5,37.5c4.6,4.6,4.6,12.2,0,16.8
	v0c-0.4,0.4-0.8,0.7-1.2,1L79.5,95.7c-4.6,4.6-12.2,4.6-16.8,0h0c-4.6-4.6-4.6-12.2,0-16.8L80,61.6H33.6c-6.6,0-11.9-5.3-11.9-11.9
	S27,37.9,33.6,37.9z"/>
</svg>
