<?xml version="1.0" encoding="utf-8"?>
<!-- Generator: Adobe Illustrator 21.0.0, SVG Export Plug-In . SVG Version: 6.00 Build 0)  -->
<svg version="1.1" id="Слой_1" xmlns="http://www.w3.org/2000/svg" xmlns:xlink="http://www.w3.org/1999/xlink" x="0px" y="0px"
	 viewBox="0 0 142.3 99.7" style="enable-background:new 0 0 142.3 99.7;" xml:space="preserve">
<style type="text/css">
	.st0{fill:#F35A53;}
</style>
<path class="st0" d="M130.3,37.7H41.1l17.3-17.3c4.7-4.7,4.7-12.3,0-17c-4.7-4.7-12.3-4.7-17,0L3.5,41.3c-4.7,4.7-4.7,12.3,0,17v0
	c0.4,0.4,0.8,0.7,1.2,1l36.8,36.8c4.7,4.7,12.3,4.7,17,0h0c4.7-4.7,4.7-12.3,0-17L41.1,61.7h89.3c6.6,0,12-5.4,12-12
	S137,37.7,130.3,37.7z"/>
</svg>
