<?xml version="1.0" encoding="utf-8"?>
<!-- Generator: Adobe Illustrator 21.0.0, SVG Export Plug-In . SVG Version: 6.00 Build 0)  -->
<svg version="1.1" id="Capa_1" xmlns="http://www.w3.org/2000/svg" xmlns:xlink="http://www.w3.org/1999/xlink" x="0px" y="0px"
	 viewBox="0 0 441.4 394.1" style="enable-background:new 0 0 441.4 394.1;" xml:space="preserve">
<style type="text/css">
	.st0{fill:#6FD8BB;}
</style>
<g>
	<path class="st0" d="M383.7,57.6C346.6,20.5,297.1,0,244.3,0C137.3,0,50,85.7,47.4,192H17c-7,0-12.9,4-15.6,10.4
		s-1.3,13.5,3.7,18.4l55.7,55.7c7.1,7.1,18.6,7.1,25.7,0l55.7-55.7c4.9-4.9,6.3-12,3.7-18.4c-2.7-6.4-8.6-10.4-15.6-10.4h-30.2
		c1.2-36.9,16.2-71.3,42.6-97.4c27.5-27.3,64-42.2,102.7-41.9c78.4,0.6,142.7,64.8,143.3,143.3c0.3,38.8-14.6,75.2-41.9,102.7
		s-63.7,42.7-102.4,42.7c-25.3,0-50.3-6.7-72.2-19.5c-9.2-5.4-20.9-3.8-28.5,3.8l-4.1,4.2c-5.1,5.2-7.5,12.3-6.6,19.5
		s5,13.4,11.2,17.1c30.3,18,65,27.6,100.2,27.6c108.6,0,197-88.4,197-197C441.3,144.2,420.9,94.7,383.7,57.6z"/>
	<path class="st0" d="M292,197c0-26.3-21.4-47.7-47.7-47.7s-47.7,21.4-47.7,47.7s21.4,47.7,47.7,47.7S292,223.3,292,197z"/>
</g>
</svg>
